<?xml version="1.0" encoding="UTF-8" standalone="no"?>
<!-- Generator: Adobe Illustrator 19.0.0, SVG Export Plug-In . SVG Version: 6.00 Build 0)  -->

<svg
   xmlns:dc="http://purl.org/dc/elements/1.1/"
   xmlns:cc="http://creativecommons.org/ns#"
   xmlns:rdf="http://www.w3.org/1999/02/22-rdf-syntax-ns#"
   xmlns:svg="http://www.w3.org/2000/svg"
   xmlns="http://www.w3.org/2000/svg"
   xmlns:sodipodi="http://sodipodi.sourceforge.net/DTD/sodipodi-0.dtd"
   xmlns:inkscape="http://www.inkscape.org/namespaces/inkscape"
   version="1.1"
   id="Capa_1"
   x="0px"
   y="0px"
   viewBox="0 0 512.005 512.005"
   style="enable-background:new 0 0 512.005 512.005;"
   xml:space="preserve"
   sodipodi:docname="732245.svg"
   inkscape:version="0.92.3 (unknown)"><metadata
   id="metadata152"><rdf:RDF><cc:Work
       rdf:about=""><dc:format>image/svg+xml</dc:format><dc:type
         rdf:resource="http://purl.org/dc/dcmitype/StillImage" /></cc:Work></rdf:RDF></metadata><defs
   id="defs150" /><sodipodi:namedview
   pagecolor="#ffffff"
   bordercolor="#666666"
   borderopacity="1"
   objecttolerance="10"
   gridtolerance="10"
   guidetolerance="10"
   inkscape:pageopacity="0"
   inkscape:pageshadow="2"
   inkscape:window-width="1920"
   inkscape:window-height="1029"
   id="namedview148"
   showgrid="false"
   inkscape:zoom="1.6367028"
   inkscape:cx="256.0025"
   inkscape:cy="329.32064"
   inkscape:window-x="0"
   inkscape:window-y="0"
   inkscape:window-maximized="1"
   inkscape:current-layer="Capa_1" />
<path
   style="fill:#ffc107;stroke-width:1.00119257"
   d="m 543.13827,210.80518 c 23.936,-7.79455 37.056,-33.58396 29.28,-57.60916 -7.776,-24.0252 -33.504,-37.14444 -57.472,-29.34988 l -362.848,118.20143 c -22.368,8.11532 -34.944,32.33298 -28.288,55.62043 6.976,24.24974 32.672,39.06902 56.448,31.30654 0.928,-0.28869 362.88,-118.16936 362.88,-118.16936 z"
   id="path101"
   inkscape:connector-curvature="0" />
<path
   style="fill:#4caf50;stroke-width:1.00119257"
   d="m 359.95402,270.17825 c 23.968,-7.82664 37.088,-33.61604 29.28,-57.60917 -7.808,-23.99312 -33.504,-37.17651 -57.472,-29.34988 L -31.053977,301.42064 c -22.368,8.11532 -34.944,32.33298 -28.288,55.62042 6.976,24.24974 32.672,39.06903 56.448,31.30654 0.896,-0.28868 362.847997,-118.16935 362.847997,-118.16935 z"
   id="path103"
   inkscape:connector-curvature="0" />
<path
   style="fill:#ec407a;stroke-width:1.00119257"
   d="m 301.86818,542.7953 c 7.776,24.0252 33.504,37.14443 57.472,29.34988 23.968,-7.79456 37.056,-33.58397 29.28,-57.60917 l -117.952,-363.71398 c -8.096,-22.42138 -32.256,-35.0274 -55.488,-28.35551 -24.192,6.99265 -38.976,32.74997 -31.232,56.58271 0.32,0.93022 117.92,363.74607 117.92,363.74607 z"
   id="path105"
   inkscape:connector-curvature="0" />
<path
   style="fill:#472a49"
   d="m 136.866,347.817 c 7.68,23.616 17.568,54.048 28.192,86.72 23.616,-7.68 54.048,-17.568 86.72,-28.192 l -28.192,-86.72 z"
   id="path107"
   inkscape:connector-curvature="0" />
<path
   style="fill:#cc2027"
   d="m 319.602,288.409 c 10.656,32.8 20.544,63.264 28.192,86.72 23.616,-7.68 54.08,-17.568 86.752,-28.192 l -28.192,-86.72 z"
   id="path109"
   inkscape:connector-curvature="0" />
<path
   style="fill:#2196f3;stroke-width:1.00119257"
   d="m 242.32149,360.04457 c 7.776,24.0252 33.504,37.14444 57.472,29.34988 23.968,-7.79456 37.056,-33.58396 29.28,-57.60917 l -117.92,-363.681901 c -8.096,-22.45346 -32.256,-35.059474 -55.488,-28.355512 -24.192,6.992649 -38.944,32.749975 -31.232,56.5827201 0.288,0.898138 117.888,363.7139829 117.888,363.7139829 z"
   id="path111"
   inkscape:connector-curvature="0" />
<path
   style="fill:#1a937d"
   d="m 77.506,165.033 c 7.68,23.616 17.568,54.08 28.192,86.752 32.768,-10.656 63.232,-20.544 86.72,-28.192 l -28.192,-86.72 z"
   id="path113"
   inkscape:connector-curvature="0" />
<path
   style="fill:#65863a"
   d="m 260.226,105.673 c 10.656,32.8 20.544,63.264 28.192,86.752 32.8,-10.656 63.264,-20.576 86.752,-28.192 L 346.978,77.481 Z"
   id="path115"
   inkscape:connector-curvature="0" />
<g
   id="g117">
</g>
<g
   id="g119">
</g>
<g
   id="g121">
</g>
<g
   id="g123">
</g>
<g
   id="g125">
</g>
<g
   id="g127">
</g>
<g
   id="g129">
</g>
<g
   id="g131">
</g>
<g
   id="g133">
</g>
<g
   id="g135">
</g>
<g
   id="g137">
</g>
<g
   id="g139">
</g>
<g
   id="g141">
</g>
<g
   id="g143">
</g>
<g
   id="g145">
</g>
</svg>