<?xml version="1.0" encoding="UTF-8" standalone="no"?>
<!-- Generator: Adobe Illustrator 19.0.0, SVG Export Plug-In . SVG Version: 6.00 Build 0)  -->

<svg
   xmlns:dc="http://purl.org/dc/elements/1.1/"
   xmlns:cc="http://creativecommons.org/ns#"
   xmlns:rdf="http://www.w3.org/1999/02/22-rdf-syntax-ns#"
   xmlns:svg="http://www.w3.org/2000/svg"
   xmlns="http://www.w3.org/2000/svg"
   xmlns:sodipodi="http://sodipodi.sourceforge.net/DTD/sodipodi-0.dtd"
   xmlns:inkscape="http://www.inkscape.org/namespaces/inkscape"
   version="1.1"
   id="Capa_1"
   x="0px"
   y="0px"
   viewBox="0 0 512.005 512.005"
   style="enable-background:new 0 0 512.005 512.005;"
   xml:space="preserve"
   sodipodi:docname="slack5.svg"
   inkscape:version="0.92.3 (unknown)"><metadata
   id="metadata53"><rdf:RDF><cc:Work
       rdf:about=""><dc:format>image/svg+xml</dc:format><dc:type
         rdf:resource="http://purl.org/dc/dcmitype/StillImage" /><dc:title></dc:title></cc:Work></rdf:RDF></metadata><defs
   id="defs51" /><sodipodi:namedview
   pagecolor="#ffffff"
   bordercolor="#666666"
   borderopacity="1"
   objecttolerance="10"
   gridtolerance="10"
   guidetolerance="10"
   inkscape:pageopacity="0"
   inkscape:pageshadow="2"
   inkscape:window-width="1246"
   inkscape:window-height="810"
   id="namedview49"
   showgrid="false"
   inkscape:zoom="0.46093299"
   inkscape:cx="256.0025"
   inkscape:cy="169.22199"
   inkscape:window-x="187"
   inkscape:window-y="109"
   inkscape:window-maximized="0"
   inkscape:current-layer="Capa_1" />
<path
   style="fill:#ffc107"
   d="M 489.09978,83.906129 C 506.74631,65.961818 506.51303,37.082587 488.55395,19.40767 470.59487,1.7327527 441.73041,1.9944259 424.05549,19.953504 L 156.56996,292.01102 c -16.1078,17.50462 -16.1155,44.74175 0.51033,62.28057 17.35272,18.24281 46.97145,19.50052 64.4908,1.65844 0.69038,-0.68375 267.52869,-272.043901 267.52869,-272.043901 z"
   id="path2"
   inkscape:connector-curvature="0" />
<path
   style="fill:#4caf50"
   d="m 354.3729,220.91237 c 17.66015,-17.98746 17.42687,-46.86669 -0.54583,-64.49845 -17.9727,-17.63177 -46.83831,-17.44164 -64.49847,0.54583 L 21.871468,429.0025 c -16.1077989,17.50461 -16.1154907,44.74174 0.510331,62.28056 17.352724,18.24282 46.971456,19.50053 64.490815,1.65844 C 87.534601,492.27252 354.3729,220.91237 354.3729,220.91237 Z"
   id="path4"
   inkscape:connector-curvature="0" />
<path
   style="fill:#ec407a"
   d="m 428.15937,489.25883 c 17.95908,17.67492 46.82354,17.41324 64.49846,-0.54583 17.67491,-17.95908 17.41324,-46.82355 -0.54584,-64.49846 L 220.02609,156.74378 c -17.50461,-16.1078 -44.74174,-16.11549 -62.28056,0.51033 -18.24282,17.35272 -19.50053,46.97145 -1.65844,64.4908 0.71213,0.67561 272.07228,267.51392 272.07228,267.51392 z"
   id="path6"
   inkscape:connector-curvature="0" />
<path
   style="fill:#472a49"
   d="m 192.6193,392.5246 c 17.71147,17.40694 40.52717,39.8418 65.02952,63.92424 17.40694,-17.71148 39.8418,-40.52718 63.92424,-65.02953 l -65.02953,-63.92424 z"
   id="path8"
   inkscape:connector-curvature="0" />
<path
   style="fill:#cc2027"
   d="m 327.31927,255.49295 c 24.5898,24.18123 47.42027,46.64447 65.02952,63.92423 17.40694,-17.71147 39.87019,-40.54194 63.95263,-65.04429 l -65.02953,-63.92424 z"
   id="path10"
   inkscape:connector-curvature="0" />
<path
   style="fill:#2196f3"
   d="m 291.12363,354.54442 c 17.95908,17.67492 46.82354,17.41325 64.49846,-0.54583 17.67492,-17.95908 17.41325,-46.82354 -0.54583,-64.49846 L 83.033506,22.042983 C 65.514126,5.9067951 38.276995,5.8991033 20.752942,22.553314 2.5101242,39.906038 1.2808048,69.510002 19.094503,87.04412 c 0.668979,0.661987 272.029127,267.5003 272.029127,267.5003 z"
   id="path12"
   inkscape:connector-curvature="0" />
<path
   style="fill:#1a937d"
   d="m 55.608074,257.7599 c 17.711474,17.40694 40.541946,39.87018 65.044296,63.95262 24.15284,-24.57504 46.61608,-47.40551 63.92423,-65.02953 l -65.02952,-63.92423 z"
   id="path14"
   inkscape:connector-curvature="0" />
<path
   style="fill:#65863a"
   d="m 190.316,120.77821 c 24.58981,24.18123 47.42028,46.64447 65.04429,63.95262 24.18123,-24.5898 46.62971,-47.44866 63.95263,-65.04429 L 254.26863,55.733916 Z"
   id="path16"
   inkscape:connector-curvature="0" />
<g
   id="g18">
</g>
<g
   id="g20">
</g>
<g
   id="g22">
</g>
<g
   id="g24">
</g>
<g
   id="g26">
</g>
<g
   id="g28">
</g>
<g
   id="g30">
</g>
<g
   id="g32">
</g>
<g
   id="g34">
</g>
<g
   id="g36">
</g>
<g
   id="g38">
</g>
<g
   id="g40">
</g>
<g
   id="g42">
</g>
<g
   id="g44">
</g>
<g
   id="g46">
</g>
</svg>